<svg width="24" height="24" viewBox="0 0 24 24" fill="none" xmlns="http://www.w3.org/2000/svg">
<path d="M15.58 12C15.58 13.98 13.98 15.58 12 15.58C10.02 15.58 8.42004 13.98 8.42004 12C8.42004 10.02 10.02 8.42004 12 8.42004C13.98 8.42004 15.58 10.02 15.58 12Z" stroke="#1F1F1F" stroke-width="1.5" stroke-linecap="round" stroke-linejoin="round"/>
<path d="M12.0001 20.2707C15.5301 20.2707 18.8201 18.1907 21.1101 14.5907C22.0101 13.1807 22.0101 10.8107 21.1101 9.4007C18.8201 5.8007 15.5301 3.7207 12.0001 3.7207C8.47009 3.7207 5.18009 5.8007 2.89009 9.4007C1.99009 10.8107 1.99009 13.1807 2.89009 14.5907C5.18009 18.1907 8.47009 20.2707 12.0001 20.2707Z" stroke="#1F1F1F" stroke-width="1.5" stroke-linecap="round" stroke-linejoin="round"/>
</svg>
