<svg width="512" height="512" viewBox="0 0 512 512" fill="none" xmlns="http://www.w3.org/2000/svg">
<path d="M415.5 51.2955V183.212C415.453 271.133 344.08 342.377 256 342.424C167.92 342.377 96.5469 271.133 96.5 183.212V51.2955C96.5 36.2326 108.755 24 123.845 24C138.935 24 151.19 36.2093 151.19 51.2955V183.212C151.213 240.984 198.124 287.81 256 287.833C313.876 287.81 360.787 240.984 360.81 183.212V51.2955C360.81 36.2326 373.042 24 388.155 24C403.269 24 415.5 36.2093 415.5 51.2955ZM400.105 379.356C402.378 386.233 401.839 393.717 398.582 400.196C371.519 454.039 316.337 488.023 256 488C195.663 488 140.481 454.015 113.441 400.196C106.646 386.724 112.082 370.328 125.579 363.545C132.069 360.294 139.568 359.732 146.457 362.024C153.345 364.293 159.039 369.205 162.296 375.684C180.081 411.072 216.33 433.433 256 433.433C295.67 433.433 331.942 411.072 349.727 375.684C356.522 362.212 372.948 356.785 386.445 363.568C392.912 366.819 397.832 372.503 400.129 379.379L400.105 379.356Z" fill="#0C6944"/>
</svg>
